<svg width="155" height="1156" viewBox="0 0 155 1156" fill="none" xmlns="http://www.w3.org/2000/svg">
<ellipse cx="27.1792" cy="1.98" rx="1.17919" ry="1.98" fill="#D9D9D9" fill-opacity="0.29"/>
<ellipse cx="47.2254" cy="1.98" rx="1.17919" ry="1.98" fill="#D9D9D9" fill-opacity="0.29"/>
<ellipse cx="67.2717" cy="1.98" rx="1.17919" ry="1.98" fill="#D9D9D9" fill-opacity="0.29"/>
<ellipse cx="87.3179" cy="1.98" rx="1.17919" ry="1.98" fill="#D9D9D9" fill-opacity="0.29"/>
<ellipse cx="106.775" cy="1.98" rx="1.17919" ry="1.98" fill="#D9D9D9" fill-opacity="0.29"/>
<ellipse cx="27.1792" cy="25.74" rx="1.17919" ry="1.98" fill="#D9D9D9" fill-opacity="0.29"/>
<ellipse cx="47.2254" cy="25.74" rx="1.17919" ry="1.98" fill="#D9D9D9" fill-opacity="0.29"/>
<ellipse cx="67.2717" cy="25.74" rx="1.17919" ry="1.98" fill="#D9D9D9" fill-opacity="0.29"/>
<ellipse cx="87.3179" cy="25.74" rx="1.17919" ry="1.98" fill="#D9D9D9" fill-opacity="0.29"/>
<ellipse cx="106.775" cy="25.74" rx="1.17919" ry="1.98" fill="#D9D9D9" fill-opacity="0.29"/>
<ellipse cx="27.1792" cy="49.5" rx="1.17919" ry="1.98" fill="#D9D9D9" fill-opacity="0.29"/>
<ellipse cx="47.2254" cy="49.5" rx="1.17919" ry="1.98" fill="#D9D9D9" fill-opacity="0.29"/>
<ellipse cx="67.2717" cy="49.5" rx="1.17919" ry="1.98" fill="#D9D9D9" fill-opacity="0.29"/>
<ellipse cx="87.3179" cy="49.5" rx="1.17919" ry="1.98" fill="#D9D9D9" fill-opacity="0.29"/>
<ellipse cx="106.775" cy="49.5" rx="1.17919" ry="1.98" fill="#D9D9D9" fill-opacity="0.29"/>
<ellipse cx="27.1792" cy="73.26" rx="1.17919" ry="1.98" fill="#D9D9D9" fill-opacity="0.29"/>
<ellipse cx="47.2254" cy="73.26" rx="1.17919" ry="1.98" fill="#D9D9D9" fill-opacity="0.29"/>
<ellipse cx="67.2717" cy="73.26" rx="1.17919" ry="1.98" fill="#D9D9D9" fill-opacity="0.29"/>
<ellipse cx="87.3179" cy="73.26" rx="1.17919" ry="1.98" fill="#D9D9D9" fill-opacity="0.29"/>
<ellipse cx="106.775" cy="73.26" rx="1.17919" ry="1.98" fill="#D9D9D9" fill-opacity="0.29"/>
<ellipse cx="27.1792" cy="97.02" rx="1.17919" ry="1.98" fill="#D9D9D9" fill-opacity="0.29"/>
<ellipse cx="47.2254" cy="97.02" rx="1.17919" ry="1.98" fill="#D9D9D9" fill-opacity="0.29"/>
<ellipse cx="67.2717" cy="97.02" rx="1.17919" ry="1.98" fill="#D9D9D9" fill-opacity="0.29"/>
<ellipse cx="87.3179" cy="97.02" rx="1.17919" ry="1.98" fill="#D9D9D9" fill-opacity="0.29"/>
<ellipse cx="106.775" cy="97.02" rx="1.17919" ry="1.98" fill="#D9D9D9" fill-opacity="0.29"/>
<ellipse cx="33.1792" cy="1058.98" rx="1.17919" ry="1.98" fill="#D9D9D9" fill-opacity="0.29"/>
<ellipse cx="53.2254" cy="1058.98" rx="1.17919" ry="1.98" fill="#D9D9D9" fill-opacity="0.29"/>
<ellipse cx="73.2717" cy="1058.98" rx="1.17919" ry="1.98" fill="#D9D9D9" fill-opacity="0.29"/>
<ellipse cx="93.3179" cy="1058.98" rx="1.17919" ry="1.98" fill="#D9D9D9" fill-opacity="0.29"/>
<ellipse cx="112.775" cy="1058.98" rx="1.17919" ry="1.98" fill="#D9D9D9" fill-opacity="0.29"/>
<ellipse cx="33.1792" cy="1082.74" rx="1.17919" ry="1.98" fill="#D9D9D9" fill-opacity="0.29"/>
<ellipse cx="53.2254" cy="1082.74" rx="1.17919" ry="1.98" fill="#D9D9D9" fill-opacity="0.29"/>
<ellipse cx="73.2717" cy="1082.74" rx="1.17919" ry="1.98" fill="#D9D9D9" fill-opacity="0.29"/>
<ellipse cx="93.3179" cy="1082.74" rx="1.17919" ry="1.98" fill="#D9D9D9" fill-opacity="0.29"/>
<ellipse cx="112.775" cy="1082.74" rx="1.17919" ry="1.98" fill="#D9D9D9" fill-opacity="0.29"/>
<ellipse cx="33.1792" cy="1106.5" rx="1.17919" ry="1.98" fill="#D9D9D9" fill-opacity="0.29"/>
<ellipse cx="53.2254" cy="1106.5" rx="1.17919" ry="1.98" fill="#D9D9D9" fill-opacity="0.29"/>
<ellipse cx="73.2717" cy="1106.5" rx="1.17919" ry="1.98" fill="#D9D9D9" fill-opacity="0.29"/>
<ellipse cx="93.3179" cy="1106.5" rx="1.17919" ry="1.98" fill="#D9D9D9" fill-opacity="0.29"/>
<ellipse cx="112.775" cy="1106.5" rx="1.17919" ry="1.98" fill="#D9D9D9" fill-opacity="0.29"/>
<ellipse cx="33.1792" cy="1130.26" rx="1.17919" ry="1.98" fill="#D9D9D9" fill-opacity="0.29"/>
<ellipse cx="53.2254" cy="1130.26" rx="1.17919" ry="1.98" fill="#D9D9D9" fill-opacity="0.29"/>
<ellipse cx="73.2717" cy="1130.26" rx="1.17919" ry="1.98" fill="#D9D9D9" fill-opacity="0.29"/>
<ellipse cx="93.3179" cy="1130.26" rx="1.17919" ry="1.98" fill="#D9D9D9" fill-opacity="0.29"/>
<ellipse cx="112.775" cy="1130.26" rx="1.17919" ry="1.98" fill="#D9D9D9" fill-opacity="0.29"/>
<ellipse cx="33.1792" cy="1154.02" rx="1.17919" ry="1.98" fill="#D9D9D9" fill-opacity="0.29"/>
<ellipse cx="53.2254" cy="1154.02" rx="1.17919" ry="1.98" fill="#D9D9D9" fill-opacity="0.29"/>
<ellipse cx="73.2717" cy="1154.02" rx="1.17919" ry="1.98" fill="#D9D9D9" fill-opacity="0.29"/>
<ellipse cx="93.3179" cy="1154.02" rx="1.17919" ry="1.98" fill="#D9D9D9" fill-opacity="0.29"/>
<ellipse cx="112.775" cy="1154.02" rx="1.17919" ry="1.98" fill="#D9D9D9" fill-opacity="0.29"/>
<path d="M41.383 551.154L110.559 525.253C113.211 524.258 115.058 523.143 116.1 521.909C117.069 520.6 117.596 519.433 117.682 518.408L119.882 518.434C119.708 520.632 119.604 523.234 119.568 526.241C119.459 529.173 119.387 532.142 119.351 535.149C119.31 538.522 119.309 541.712 119.346 544.719C119.31 547.726 119.355 550.11 119.48 551.872L117.28 551.845C117.178 548.104 116.583 545.75 115.495 544.783C114.334 543.742 111.875 543.933 108.117 545.355L56.7467 563.439L53.9106 561.425L97.2668 578.667C101.28 580.328 104.568 581.358 107.13 581.755C109.693 582.08 111.675 581.92 113.077 581.277C114.479 580.56 115.482 579.436 116.087 577.903C116.62 576.296 116.936 574.393 117.036 572.194L119.236 572.22C119.06 574.638 118.959 576.947 118.933 579.147C118.833 581.346 118.769 583.582 118.742 585.855C118.723 587.468 118.741 589.009 118.797 590.476C118.78 591.869 118.838 593.117 118.972 594.218L116.772 594.192C116.497 592.649 115.526 591.06 113.859 589.427C112.192 587.793 109.351 586.182 105.336 584.594L41.2919 558.743C41.3793 557.571 41.431 556.325 41.4468 555.005C41.4635 553.612 41.4423 552.328 41.383 551.154ZM87.8922 544.012L90.092 544.038L89.6984 576.816L87.5118 575.689L87.8922 544.012ZM61.9234 480.446C61.9666 476.853 62.5186 473.633 63.5796 470.785C64.5672 467.937 66.0239 465.718 67.9498 464.127C69.8024 462.536 72.0852 461.757 74.7984 461.789C77.5848 461.823 80.177 462.771 82.5748 464.633C84.9735 466.422 87.0692 469.014 88.8619 472.409C90.5821 475.73 91.8545 479.706 92.679 484.336C92.5189 479.347 93.0859 474.88 94.38 470.935C95.6741 466.99 97.618 463.897 100.212 461.655C102.733 459.338 105.9 458.203 109.713 458.248C113.086 458.289 116.192 459.243 119.03 461.11C121.868 462.905 124.369 465.392 126.531 468.571C128.766 471.751 130.629 475.367 132.121 479.419C133.687 483.398 134.846 487.592 135.6 492.002C136.354 496.411 136.704 500.816 136.651 505.215L134.452 505.189C134.42 501.741 133.838 498.251 132.707 494.717C131.65 491.111 130.076 487.828 127.985 484.87C125.968 481.839 123.431 479.388 120.373 477.518C117.242 475.647 113.66 474.687 109.627 474.639C105.3 474.587 101.732 475.57 98.9204 477.59C96.1093 479.61 94.5355 482.415 94.199 486.004C94.6991 487.11 95.1272 488.105 95.4833 488.99C95.766 489.873 95.9021 490.755 95.8916 491.635C95.8836 492.295 95.7675 492.807 95.5431 493.171C95.3187 493.535 94.9132 493.713 94.3266 493.706C93.4466 493.696 92.8278 493.322 92.4699 492.584C92.1121 491.846 91.9385 491.037 91.949 490.157C91.9561 489.571 92.0364 488.985 92.1901 488.4C92.2714 487.741 92.3531 487.045 92.4352 486.313C90.2732 483.133 87.9531 480.905 85.475 479.629C82.9234 478.352 80.3644 477.697 77.798 477.667C74.4982 477.627 72.0678 478.478 70.5068 480.219C68.8733 481.886 68.0381 484.26 68.0011 487.34C67.9668 490.199 68.6679 492.885 70.1046 495.396C71.4679 497.905 73.5693 500.021 76.4088 501.742L75.3951 503.71C72.9911 502.361 70.7744 500.684 68.745 498.679C66.6423 496.674 64.9852 494.197 63.7739 491.249C62.4892 488.3 61.8724 484.699 61.9234 480.446ZM43.8168 366.78L45.9067 366.805C46.3918 369.157 47.388 371.7 48.8953 374.431C50.4035 377.09 52.8632 379.906 56.2744 382.88L80.6643 403.855L71.6116 397.366L112.733 371.677C114.432 370.671 115.802 369.587 116.842 368.427C117.883 367.266 118.781 365.736 119.538 363.839L121.737 363.865C121.56 366.43 121.452 369.289 121.414 372.442C121.303 375.594 121.232 378.453 121.201 381.02C121.183 382.56 121.197 384.43 121.244 386.631C121.218 388.831 121.258 391.618 121.364 394.993L119.164 394.966C119.053 391.958 118.672 390.157 118.019 389.562C117.293 388.893 116.044 389.135 114.27 390.287L88.23 405.926C86.5312 406.932 85.2736 407.834 84.4573 408.631C83.5677 409.427 82.9714 410.226 82.6684 411.029C82.292 411.832 82.0593 412.892 81.9701 414.211L79.6603 414.183C79.6257 410.956 78.7801 408.086 77.1235 405.572C75.4677 402.986 72.9347 400.168 69.5244 397.121L61.7929 390.537C58.5266 387.711 55.7228 386.064 53.3816 385.596C50.9679 385.054 49.0923 385.508 47.7548 386.958C46.4182 388.336 45.6956 390.491 45.5871 393.423L43.4972 393.398C43.5926 391.565 43.6866 389.843 43.7793 388.231C43.7995 386.544 43.8569 384.821 43.9513 383.062C43.9733 381.229 43.9971 379.249 44.0226 377.123C44.0482 374.996 44.0344 373.089 43.9813 371.402C43.9291 369.641 43.8743 368.1 43.8168 366.78ZM43.3599 404.837L45.5597 404.863C45.6049 407.211 45.8766 409.011 46.3749 410.264C46.8008 411.442 47.6715 412.223 48.987 412.605C50.2292 412.987 52.2068 413.194 54.92 413.226L109.476 413.881C112.116 413.913 114.098 413.754 115.422 413.403C116.747 412.979 117.637 412.183 118.091 411.015C118.545 409.847 118.86 408.09 119.034 405.746L121.234 405.772C121.064 407.75 120.961 410.242 120.924 413.249C120.815 416.254 120.742 419.297 120.705 422.377C120.663 425.897 120.659 429.233 120.695 432.387C120.658 435.467 120.702 437.925 120.826 439.76L118.626 439.733C118.508 437.385 118.236 435.621 117.81 434.443C117.384 433.264 116.513 432.484 115.198 432.101C113.883 431.646 111.906 431.402 109.266 431.37L54.71 430.715C51.9969 430.683 50.0144 430.879 48.7625 431.304C47.4382 431.655 46.5486 432.451 46.0936 433.692C45.5663 434.859 45.2522 436.579 45.1516 438.851L42.9518 438.825C43.0471 436.992 43.1499 434.537 43.2603 431.458C43.3714 428.305 43.4482 424.969 43.4904 421.45C43.5274 418.37 43.5273 415.326 43.49 412.319C43.4528 409.312 43.4094 406.818 43.3599 404.837ZM61.319 310.9C66.1586 310.959 69.9354 310.967 72.6495 310.926C75.2902 310.885 77.6746 310.803 79.8029 310.682C79.6492 311.267 79.5256 312.402 79.432 314.088C79.3393 315.7 79.2802 317.57 79.2546 319.696C79.1558 321.822 79.094 323.911 79.0694 325.965L78.866 342.903L97.6535 344.889C96.4281 343.114 95.4283 340.865 94.6543 338.143C93.8078 335.346 93.4075 332.041 93.4533 328.227C93.5122 323.314 94.3306 319.291 95.9084 316.156C97.4861 313.021 99.6041 310.7 102.262 309.192C104.921 307.684 107.863 306.949 111.09 306.988C115.343 307.039 119.14 308.368 122.482 310.975C125.826 313.508 128.682 316.916 131.05 321.198C133.419 325.48 135.196 330.195 136.381 335.343C137.639 340.492 138.237 345.67 138.175 350.876L136.195 350.852C136.235 347.479 135.725 344.173 134.664 340.933C133.603 337.62 132.025 334.668 129.93 332.076C127.834 329.484 125.255 327.399 122.194 325.822C119.133 324.245 115.586 323.433 111.553 323.384C107.006 323.33 103.474 324.351 100.955 326.447C98.4365 328.544 97.152 331.682 97.1019 335.862C97.0763 337.988 97.3476 339.825 97.9158 341.372C98.4114 342.845 99.1638 344.321 100.173 345.799L99.1643 347.327L64.7791 343.394C64.9354 342.589 65.0564 341.674 65.1421 340.648C65.2286 339.549 65.278 338.487 65.2904 337.46L65.5083 319.311C65.5338 317.185 65.2214 315.714 64.5712 314.9C63.9218 314.012 62.8285 313.449 61.2912 313.21L61.319 310.9ZM43.6591 242.485L45.8642 242.072C46.7124 244.722 47.744 247.375 48.9589 250.029C50.1738 252.684 51.8666 255.235 54.0374 257.681C56.2091 260.054 59.0071 262.178 62.4315 264.052C65.7826 265.926 70.018 267.443 75.1378 268.605C80.2584 269.693 86.4484 270.281 93.7079 270.368C100.967 270.455 106.693 270.011 110.885 269.034C115.005 267.984 117.954 266.662 119.733 265.07C121.439 263.477 122.302 261.911 122.32 260.371C122.34 258.684 121.589 257.099 120.067 255.613C118.545 254.128 116.102 252.926 112.74 252.005C109.378 251.011 104.947 250.482 99.4479 250.416C94.1683 250.352 89.9466 250.741 86.783 251.584C83.6202 252.352 81.3338 253.425 79.9238 254.801C78.5139 256.178 77.7983 257.746 77.7772 259.506C77.7622 260.753 78.1121 262.15 78.8269 263.699C79.5417 265.248 80.6978 266.692 82.2952 268.031C83.8925 269.37 86.1543 270.351 89.0803 270.973L88.6285 271.957C85.114 271.475 82.3403 270.378 80.3074 268.667C78.202 266.882 76.7239 264.774 75.873 262.343C75.0221 259.913 74.6112 257.488 74.6402 255.068C74.6878 251.108 75.6842 247.527 77.6295 244.323C79.5747 241.12 82.3191 238.549 85.8626 236.611C89.4062 234.674 93.6711 233.735 98.6574 233.795C104.304 233.863 109.055 235.166 112.911 237.706C116.768 240.246 119.698 243.618 121.701 247.823C123.63 252.026 124.566 256.584 124.507 261.497C124.41 269.563 121.621 275.874 116.139 280.428C110.585 284.908 102.821 287.089 92.8486 286.969C86.249 286.89 80.3942 285.866 75.2842 283.898C70.1741 281.93 65.7681 279.347 62.0662 276.149C58.291 272.95 55.1431 269.428 52.6224 265.584C50.1026 261.667 48.1332 257.72 46.7141 253.743C45.2227 249.691 44.2043 245.939 43.6591 242.485Z" fill="#303539"/>
</svg>
