<svg width="102" height="99" viewBox="0 0 102 99" fill="none" xmlns="http://www.w3.org/2000/svg">
<ellipse cx="1.17919" cy="1.98" rx="1.17919" ry="1.98" fill="#D9D9D9" fill-opacity="0.29"/>
<ellipse cx="21.2255" cy="1.98" rx="1.17919" ry="1.98" fill="#D9D9D9" fill-opacity="0.29"/>
<ellipse cx="41.2717" cy="1.98" rx="1.17919" ry="1.98" fill="#D9D9D9" fill-opacity="0.29"/>
<ellipse cx="61.3179" cy="1.98" rx="1.17919" ry="1.98" fill="#D9D9D9" fill-opacity="0.29"/>
<ellipse cx="81.3641" cy="1.98" rx="1.17919" ry="1.98" fill="#D9D9D9" fill-opacity="0.29"/>
<ellipse cx="100.821" cy="1.98" rx="1.17919" ry="1.98" fill="#D9D9D9" fill-opacity="0.29"/>
<ellipse cx="1.17919" cy="25.74" rx="1.17919" ry="1.98" fill="#D9D9D9" fill-opacity="0.29"/>
<ellipse cx="21.2255" cy="25.74" rx="1.17919" ry="1.98" fill="#D9D9D9" fill-opacity="0.29"/>
<ellipse cx="41.2717" cy="25.74" rx="1.17919" ry="1.98" fill="#D9D9D9" fill-opacity="0.29"/>
<ellipse cx="61.3179" cy="25.74" rx="1.17919" ry="1.98" fill="#D9D9D9" fill-opacity="0.29"/>
<ellipse cx="81.3641" cy="25.74" rx="1.17919" ry="1.98" fill="#D9D9D9" fill-opacity="0.29"/>
<ellipse cx="100.821" cy="25.74" rx="1.17919" ry="1.98" fill="#D9D9D9" fill-opacity="0.29"/>
<ellipse cx="1.17919" cy="49.5" rx="1.17919" ry="1.98" fill="#D9D9D9" fill-opacity="0.29"/>
<ellipse cx="21.2255" cy="49.5" rx="1.17919" ry="1.98" fill="#D9D9D9" fill-opacity="0.29"/>
<ellipse cx="41.2717" cy="49.5" rx="1.17919" ry="1.98" fill="#D9D9D9" fill-opacity="0.29"/>
<ellipse cx="61.3179" cy="49.5" rx="1.17919" ry="1.98" fill="#D9D9D9" fill-opacity="0.29"/>
<ellipse cx="81.3641" cy="49.5" rx="1.17919" ry="1.98" fill="#D9D9D9" fill-opacity="0.29"/>
<ellipse cx="100.821" cy="49.5" rx="1.17919" ry="1.98" fill="#D9D9D9" fill-opacity="0.29"/>
<ellipse cx="1.17919" cy="73.26" rx="1.17919" ry="1.98" fill="#D9D9D9" fill-opacity="0.29"/>
<ellipse cx="21.2255" cy="73.26" rx="1.17919" ry="1.98" fill="#D9D9D9" fill-opacity="0.29"/>
<ellipse cx="41.2717" cy="73.26" rx="1.17919" ry="1.98" fill="#D9D9D9" fill-opacity="0.29"/>
<ellipse cx="61.3179" cy="73.26" rx="1.17919" ry="1.98" fill="#D9D9D9" fill-opacity="0.29"/>
<ellipse cx="81.3641" cy="73.26" rx="1.17919" ry="1.98" fill="#D9D9D9" fill-opacity="0.29"/>
<ellipse cx="100.821" cy="73.26" rx="1.17919" ry="1.98" fill="#D9D9D9" fill-opacity="0.29"/>
<ellipse cx="1.17919" cy="97.02" rx="1.17919" ry="1.98" fill="#D9D9D9" fill-opacity="0.29"/>
<ellipse cx="21.2255" cy="97.02" rx="1.17919" ry="1.98" fill="#D9D9D9" fill-opacity="0.29"/>
<ellipse cx="41.2717" cy="97.02" rx="1.17919" ry="1.98" fill="#D9D9D9" fill-opacity="0.29"/>
<ellipse cx="61.3179" cy="97.02" rx="1.17919" ry="1.98" fill="#D9D9D9" fill-opacity="0.29"/>
<ellipse cx="81.3641" cy="97.02" rx="1.17919" ry="1.98" fill="#D9D9D9" fill-opacity="0.29"/>
<ellipse cx="100.821" cy="97.02" rx="1.17919" ry="1.98" fill="#D9D9D9" fill-opacity="0.29"/>
</svg>
