<svg width="14" height="13" viewBox="0 0 14 13" fill="none" xmlns="http://www.w3.org/2000/svg">
<path d="M11.8458 1.76895C10.9591 1.31314 9.99905 0.982316 8.99902 0.791172C8.99025 0.790862 8.98153 0.792677 8.97347 0.796487C8.96541 0.800298 8.9582 0.806012 8.95235 0.813227C8.83235 1.05583 8.69235 1.37196 8.59901 1.61456C7.53832 1.43812 6.45962 1.43812 5.39892 1.61456C5.30559 1.36461 5.16558 1.05583 5.03891 0.813227C5.03225 0.798523 5.01225 0.791172 4.99225 0.791172C3.99222 0.982316 3.03886 1.31314 2.1455 1.76895C2.13883 1.76895 2.13217 1.7763 2.1255 1.78365C0.312118 4.7758 -0.187896 7.68708 0.0587777 10.569C0.0587777 10.5837 0.0654445 10.5984 0.0787782 10.6057C1.27881 11.5761 2.43218 12.1643 3.57221 12.5539C3.59221 12.5613 3.61221 12.5539 3.61888 12.5392C3.88555 12.1349 4.12556 11.7085 4.33223 11.26C4.34556 11.2306 4.33223 11.2012 4.30556 11.1938C3.92555 11.0321 3.56554 10.841 3.2122 10.6204C3.18553 10.6057 3.18553 10.5616 3.20553 10.5395C3.27887 10.4807 3.3522 10.4146 3.42554 10.3558C3.43887 10.341 3.45887 10.341 3.4722 10.3484C5.7656 11.5026 8.239 11.5026 10.5057 10.3484C10.5191 10.341 10.5391 10.341 10.5524 10.3558C10.6257 10.4219 10.6991 10.4807 10.7724 10.5469C10.7991 10.569 10.7991 10.6131 10.7657 10.6278C10.4191 10.8557 10.0524 11.0395 9.67237 11.2012C9.64571 11.2085 9.63904 11.2453 9.64571 11.2674C9.85905 11.7158 10.0991 12.1422 10.3591 12.5466C10.3791 12.5539 10.3991 12.5613 10.4191 12.5539C11.5658 12.1643 12.7191 11.5761 13.9192 10.6057C13.9325 10.5984 13.9392 10.5837 13.9392 10.569C14.2325 7.23862 13.4525 4.3494 11.8724 1.78365C11.8658 1.7763 11.8591 1.76895 11.8458 1.76895ZM4.6789 8.81189C3.99222 8.81189 3.41887 8.11348 3.41887 7.25333C3.41887 6.39318 3.97889 5.69476 4.6789 5.69476C5.38559 5.69476 5.94561 6.40053 5.93894 7.25333C5.93894 8.11348 5.37892 8.81189 4.6789 8.81189ZM9.3257 8.81189C8.63901 8.81189 8.06566 8.11348 8.06566 7.25333C8.06566 6.39318 8.62568 5.69476 9.3257 5.69476C10.0324 5.69476 10.5924 6.40053 10.5857 7.25333C10.5857 8.11348 10.0324 8.81189 9.3257 8.81189Z" fill="white"/>
</svg>
