<svg width="14" height="14" viewBox="0 0 14 14" fill="none" xmlns="http://www.w3.org/2000/svg">
<path d="M6.99999 0.348083C5.35365 0.348083 5.14663 0.356003 4.49977 0.386096C3.85291 0.417773 3.41232 0.523892 3.02633 0.680694C2.62145 0.839729 2.25472 1.08919 1.95177 1.41165C1.64318 1.72818 1.40433 2.11111 1.25183 2.53381C1.10168 2.93611 0.999302 3.39702 0.969727 4.07016C0.94091 4.74726 0.933327 4.96266 0.933327 6.68432C0.933327 8.40439 0.94091 8.6198 0.969727 9.29531C1.00006 9.97004 1.10168 10.4301 1.25183 10.8332C1.40729 11.2498 1.61431 11.603 1.95177 11.9554C2.28847 12.3078 2.62669 12.5248 3.02557 12.6864C3.41232 12.8432 3.85215 12.9501 4.49825 12.981C5.14587 13.011 5.35213 13.019 6.99999 13.019C8.64785 13.019 8.85336 13.011 9.50098 12.981C10.1463 12.9493 10.5884 12.8432 10.9744 12.6864C11.379 12.5272 11.7455 12.2778 12.0482 11.9554C12.3857 11.603 12.5927 11.2498 12.7482 10.8332C12.8976 10.4301 12.9999 9.97004 13.0303 9.29531C13.0591 8.6198 13.0667 8.40439 13.0667 6.68353C13.0667 4.96266 13.0591 4.74726 13.0303 4.07095C12.9999 3.39702 12.8976 2.93611 12.7482 2.53381C12.5957 2.1111 12.3568 1.72816 12.0482 1.41165C11.7454 1.08907 11.3786 0.839591 10.9737 0.680694C10.5869 0.523892 10.1456 0.416981 9.50022 0.386096C8.8526 0.356003 8.64709 0.348083 6.99848 0.348083H7.00075H6.99999ZM6.45627 1.49005H7.00075C8.62055 1.49005 8.81241 1.49559 9.45168 1.52648C10.0432 1.55419 10.3647 1.65794 10.5786 1.74426C10.8614 1.85909 11.0639 1.99688 11.2762 2.21862C11.4886 2.44036 11.6198 2.65102 11.7297 2.9472C11.8131 3.16973 11.9117 3.50551 11.9383 4.12322C11.9678 4.79081 11.9739 4.99117 11.9739 6.68194C11.9739 8.37271 11.9678 8.57386 11.9383 9.24146C11.9117 9.85917 11.8124 10.1942 11.7297 10.4175C11.6325 10.6926 11.4772 10.9413 11.2755 11.1453C11.0631 11.367 10.8614 11.504 10.5778 11.6188C10.3655 11.7059 10.0439 11.8089 9.45168 11.8374C8.81241 11.8675 8.62055 11.8746 7.00075 11.8746C5.38095 11.8746 5.18834 11.8675 4.54906 11.8374C3.95756 11.8089 3.63679 11.7059 3.42294 11.6188C3.15941 11.5174 2.92101 11.3556 2.72527 11.1453C2.52336 10.941 2.36788 10.692 2.27027 10.4167C2.18761 10.1942 2.08827 9.85837 2.06173 9.24067C2.03291 8.57307 2.02684 8.37271 2.02684 6.68036C2.02684 4.9888 2.03291 4.78923 2.06173 4.12163C2.08903 3.50393 2.18761 3.16815 2.27103 2.94482C2.38099 2.64943 2.51293 2.43799 2.72527 2.21625C2.9376 1.99451 3.13932 1.8575 3.42294 1.74267C3.63679 1.65556 3.95756 1.55261 4.54906 1.5241C5.10871 1.49717 5.32559 1.48926 6.45627 1.48846V1.49005ZM10.2388 2.54173C10.1432 2.54173 10.0486 2.5614 9.96024 2.5996C9.87192 2.63781 9.79166 2.69381 9.72406 2.7644C9.65646 2.835 9.60284 2.91881 9.56625 3.01105C9.52966 3.10329 9.51083 3.20215 9.51083 3.30198C9.51083 3.40182 9.52966 3.50068 9.56625 3.59292C9.60284 3.68516 9.65646 3.76897 9.72406 3.83956C9.79166 3.91016 9.87192 3.96616 9.96024 4.00437C10.0486 4.04257 10.1432 4.06224 10.2388 4.06224C10.4319 4.06224 10.6171 3.98214 10.7536 3.83956C10.8901 3.69699 10.9668 3.50362 10.9668 3.30198C10.9668 3.10035 10.8901 2.90698 10.7536 2.7644C10.6171 2.62183 10.4319 2.54173 10.2388 2.54173ZM7.00075 3.43028C6.58751 3.42354 6.17712 3.50273 5.79347 3.66322C5.40982 3.8237 5.06057 4.06229 4.76606 4.36509C4.47155 4.66789 4.23766 5.02884 4.07801 5.42694C3.91837 5.82504 3.83615 6.25232 3.83615 6.68392C3.83615 7.11552 3.91837 7.54281 4.07801 7.94091C4.23766 8.339 4.47155 8.69996 4.76606 9.00275C5.06057 9.30555 5.40982 9.54414 5.79347 9.70463C6.17712 9.86512 6.58751 9.9443 7.00075 9.93757C7.81865 9.92424 8.59872 9.57559 9.1726 8.96686C9.74648 8.35813 10.0681 7.53816 10.0681 6.68392C10.0681 5.82969 9.74648 5.00971 9.1726 4.40098C8.59872 3.79226 7.81865 3.4436 7.00075 3.43028ZM7.00075 4.57145C7.53715 4.57145 8.05157 4.79397 8.43086 5.19006C8.81015 5.58615 9.02323 6.12337 9.02323 6.68353C9.02323 7.24368 8.81015 7.7809 8.43086 8.17699C8.05157 8.57308 7.53715 8.7956 7.00075 8.7956C6.46436 8.7956 5.94993 8.57308 5.57065 8.17699C5.19136 7.7809 4.97828 7.24368 4.97828 6.68353C4.97828 6.12337 5.19136 5.58615 5.57065 5.19006C5.94993 4.79397 6.46436 4.57145 7.00075 4.57145Z" fill="white"/>
</svg>
