<svg width="14" height="13" viewBox="0 0 14 13" fill="none" xmlns="http://www.w3.org/2000/svg">
<path d="M9.38187 7.93165C9.43413 7.51351 9.47333 7.09537 9.47333 6.66456C9.47333 6.23375 9.43413 5.81561 9.38187 5.39747H11.5901C11.6947 5.80294 11.76 6.22741 11.76 6.66456C11.76 7.10171 11.6947 7.52618 11.5901 7.93165M8.22547 11.4542C8.61747 10.7509 8.918 9.99067 9.12707 9.19874H11.0544C10.4214 10.2557 9.41722 11.0563 8.22547 11.4542ZM8.06213 7.93165H5.00453C4.9392 7.51351 4.9 7.09537 4.9 6.66456C4.9 6.23375 4.9392 5.80927 5.00453 5.39747H8.06213C8.12093 5.80927 8.16667 6.23375 8.16667 6.66456C8.16667 7.09537 8.12093 7.51351 8.06213 7.93165ZM6.53333 11.7076C5.99107 10.9473 5.55333 10.1047 5.28547 9.19874H7.7812C7.51333 10.1047 7.0756 10.9473 6.53333 11.7076ZM3.92 4.13038H2.01227C2.63872 3.0706 3.6422 2.2687 4.83467 1.87496C4.44267 2.5782 4.14867 3.33845 3.92 4.13038ZM2.01227 9.19874H3.92C4.14867 9.99067 4.44267 10.7509 4.83467 11.4542C3.6447 11.0561 2.64263 10.2553 2.01227 9.19874ZM1.47653 7.93165C1.372 7.52618 1.30667 7.10171 1.30667 6.66456C1.30667 6.22741 1.372 5.80294 1.47653 5.39747H3.6848C3.63253 5.81561 3.59333 6.23375 3.59333 6.66456C3.59333 7.09537 3.63253 7.51351 3.6848 7.93165M6.53333 1.61521C7.0756 2.37546 7.51333 3.22441 7.7812 4.13038H5.28547C5.55333 3.22441 5.99107 2.37546 6.53333 1.61521ZM11.0544 4.13038H9.12707C8.92259 3.34571 8.6198 2.58827 8.22547 1.87496C9.4276 2.2741 10.4272 3.0787 11.0544 4.13038ZM6.53333 0.329117C2.9204 0.329117 0 3.18007 0 6.66456C0 8.34482 0.688331 9.95627 1.91357 11.1444C2.52025 11.7327 3.24047 12.1994 4.03313 12.5177C4.82579 12.8361 5.67536 13 6.53333 13C8.26608 13 9.92786 12.3325 11.1531 11.1444C12.3783 9.95627 13.0667 8.34482 13.0667 6.66456C13.0667 5.83258 12.8977 5.00874 12.5693 4.24009C12.241 3.47144 11.7598 2.77303 11.1531 2.18473C10.5464 1.59642 9.82619 1.12976 9.03353 0.811374C8.24087 0.492988 7.3913 0.329117 6.53333 0.329117Z" fill="white"/>
</svg>
