<svg width="42" height="44" viewBox="0 0 42 44" fill="none" xmlns="http://www.w3.org/2000/svg">
<path d="M20.6479 0.965576C18.4246 0.965576 16.4058 1.15335 14.9918 1.44196C14.4404 1.55573 14.0136 1.68708 13.6845 1.81289C14.0136 1.93869 14.4404 2.07004 14.9918 2.18382C16.4058 2.47242 18.4246 2.6602 20.6479 2.6602C22.8712 2.6602 24.89 2.47242 26.304 2.18382C26.8554 2.07004 27.2823 1.93869 27.6113 1.81289C27.2823 1.68708 26.8554 1.55573 26.304 1.44196C24.89 1.15335 22.8712 0.965576 20.6479 0.965576ZM11.6835 1.45676C9.98493 2.28002 9.06893 3.86364 9.30016 5.4417C9.47802 6.58132 10.2695 7.61641 11.5235 8.15291C12.2438 8.46742 13.1154 8.63392 14.1381 8.62467C15.3209 10.9094 16.9217 12.7965 18.638 13.6752V17.736C17.1262 18.6888 16.1213 20.6683 15.1341 22.7033C18.5847 23.6191 22.72 23.5728 26.1528 22.6941C25.1746 20.6591 24.1607 18.6888 22.6578 17.736V13.6752C24.3742 12.7965 25.975 10.9094 27.1578 8.62467C28.1805 8.63392 29.052 8.46742 29.7724 8.15291C31.0263 7.61641 31.8178 6.58132 31.9957 5.4417C32.2269 3.86364 31.3109 2.28002 29.6123 1.45676C29.6479 1.56776 29.6656 1.68616 29.6656 1.81289C29.6656 2.21527 29.4611 2.54457 29.2477 2.75177C29.0431 2.95898 28.8119 3.0968 28.554 3.22168C28.0382 3.47143 27.389 3.65828 26.6064 3.81739C25.0501 4.13744 22.9602 4.32522 20.6479 4.32522C18.3357 4.32522 16.2458 4.13744 14.6895 3.81739C13.9068 3.65828 13.2576 3.47143 12.7418 3.22168C12.4839 3.0968 12.2527 2.95898 12.0482 2.75177C11.8347 2.54457 11.6302 2.21527 11.6302 1.81289C11.6302 1.68616 11.648 1.56776 11.6835 1.45676ZM12.2705 2.96545C12.475 4.29192 12.8486 5.63966 13.3644 6.91895C12.8663 6.86807 12.4661 6.76077 12.1371 6.61924C11.3011 6.25849 10.9632 5.72846 10.8832 5.18455C10.7764 4.45102 11.1766 3.50566 12.2705 2.96545ZM29.0253 2.96545C30.1192 3.50566 30.5194 4.45102 30.4127 5.18455C30.3326 5.72846 29.9947 6.25849 29.1587 6.61924C28.8297 6.76077 28.4295 6.86807 27.9315 6.91895C28.4473 5.63966 28.8208 4.29192 29.0253 2.96545ZM35.3129 23.2768C34.4057 23.2953 33.5253 23.7578 32.7605 24.5904C31.9067 25.5431 31.2486 26.9769 31.0797 28.6327C30.9107 30.2884 31.2486 31.8332 31.889 32.9525C32.5382 34.081 33.4542 34.7655 34.4947 34.8765C35.5441 34.9967 36.5757 34.5342 37.4383 33.5815C38.301 32.6287 38.9502 31.1949 39.128 29.5392C39.297 27.8834 38.9591 26.3386 38.3188 25.2194C37.6607 24.0909 36.7536 23.4063 35.7042 23.2953C35.5708 23.2768 35.4462 23.2768 35.3129 23.2768ZM5.98298 23.2768C5.84958 23.2768 5.71618 23.2768 5.59168 23.2953C4.54228 23.4156 3.63517 24.1094 2.98596 25.2194C2.33676 26.3479 1.99881 27.8927 2.17668 29.5484C2.34565 31.2042 2.99486 32.638 3.8575 33.5907C4.72014 34.5342 5.75176 35.006 6.80116 34.8857C7.85056 34.7655 8.75767 34.081 9.40688 32.9617C10.0561 31.8332 10.394 30.2884 10.2162 28.6327C10.0472 26.9769 9.39798 25.5431 8.52644 24.5904C7.77941 23.7671 6.89009 23.3046 5.98298 23.2768ZM25.3613 24.5811C24.4009 24.7754 23.4137 24.9141 22.4088 24.9881C23.6094 29.0397 25.7348 32.712 28.0827 36.2825C28.5807 35.524 29.1321 34.9227 29.7368 34.4417C30.0036 34.229 30.2793 34.044 30.555 33.8867L30.5639 33.8775C30.5461 33.8497 30.5372 33.8312 30.5194 33.8035C30.1726 33.2022 29.9058 32.527 29.719 31.7962C28.1271 29.7519 26.5263 27.5781 25.3613 24.5811ZM15.9256 24.5996C14.7606 27.5781 13.1687 29.7519 11.5857 31.7869C11.399 32.5177 11.1233 33.2022 10.7764 33.8127C10.7675 33.8312 10.7498 33.859 10.732 33.8775L10.7409 33.8867C11.0166 34.044 11.2922 34.229 11.559 34.4417C12.1638 34.9227 12.7152 35.524 13.2132 36.2825C15.561 32.7212 17.6776 29.0489 18.8871 24.9974C17.8821 24.9234 16.8861 24.7939 15.9256 24.5996ZM38.2209 35.1077C37.1271 36.116 35.7664 36.6988 34.3257 36.5323C33.2852 36.4213 32.3514 35.931 31.5955 35.2002C31.2842 35.3575 30.9907 35.5425 30.7151 35.7645C29.3633 36.8375 28.1805 39.631 27.3267 43.7011H41.1913V38.1695C40.9956 37.9105 40.3909 37.1058 39.4749 36.19C39.0836 35.7922 38.6478 35.4222 38.2209 35.1077ZM3.0749 35.117C2.64802 35.4222 2.21225 35.7922 1.82095 36.19C0.904948 37.1058 0.300208 37.9105 0.104557 38.1695V43.7011H13.9691C13.1154 39.631 11.9326 36.8375 10.5808 35.7645C10.3051 35.5425 10.0116 35.3575 9.70035 35.2002C8.94443 35.931 8.01953 36.4213 6.97013 36.5415C5.53832 36.708 4.15987 36.1252 3.0749 35.117Z" fill="#C58754"/>
</svg>
