<svg width="18" height="18" viewBox="0 0 18 18" fill="none" xmlns="http://www.w3.org/2000/svg">
<g clip-path="url(#clip0_485_150)">
<path d="M15.2378 3.36898C14.0903 2.85148 12.8603 2.46898 11.5741 2.25148C11.5626 2.24928 11.5507 2.2507 11.5401 2.25554C11.5295 2.26037 11.5207 2.26839 11.5148 2.27848C11.3573 2.55523 11.1818 2.91598 11.0588 3.20098C9.69463 2.99716 8.30773 2.99716 6.94356 3.20098C6.80656 2.88513 6.65207 2.57715 6.48081 2.27848C6.475 2.26827 6.46622 2.26007 6.45563 2.25498C6.44505 2.24988 6.43316 2.24814 6.42156 2.24998C5.13606 2.46748 3.90606 2.84998 2.75781 3.36823C2.74793 3.37237 2.73955 3.37944 2.73381 3.38848C0.399805 6.81973 -0.239945 10.1662 0.0743053 13.4707C0.0751797 13.4788 0.0776919 13.4867 0.081689 13.4937C0.085686 13.5008 0.0910843 13.507 0.0975553 13.512C1.45985 14.5038 2.97931 15.2593 4.59231 15.747C4.60355 15.7504 4.61558 15.7504 4.62681 15.747C4.63805 15.7435 4.64798 15.7367 4.6553 15.7275C5.0024 15.2633 5.30998 14.7708 5.57481 14.2552C5.57848 14.2482 5.5806 14.2404 5.58102 14.2325C5.58143 14.2245 5.58014 14.2166 5.57723 14.2092C5.57431 14.2018 5.56984 14.1951 5.56412 14.1896C5.55839 14.1841 5.55155 14.1799 5.54406 14.1772C5.05956 13.9948 4.59012 13.7746 4.14006 13.5187C4.13197 13.5141 4.12515 13.5076 4.12022 13.4997C4.11529 13.4918 4.1124 13.4828 4.1118 13.4735C4.11121 13.4642 4.11293 13.4549 4.11682 13.4464C4.1207 13.438 4.12662 13.4306 4.13406 13.425C4.22856 13.3552 4.32306 13.2825 4.41306 13.2097C4.42116 13.2032 4.43091 13.199 4.44124 13.1977C4.45157 13.1964 4.46207 13.1979 4.47156 13.2022C7.41681 14.5252 10.6066 14.5252 13.5173 13.2022C13.5268 13.1977 13.5374 13.1959 13.5479 13.1971C13.5584 13.1983 13.5683 13.2024 13.5766 13.209C13.6666 13.2825 13.7603 13.3552 13.8556 13.425C13.8631 13.4305 13.8691 13.4377 13.8731 13.4461C13.8771 13.4545 13.879 13.4638 13.8785 13.4731C13.8781 13.4824 13.8753 13.4914 13.8705 13.4994C13.8657 13.5073 13.8591 13.514 13.8511 13.5187C13.4026 13.7767 12.9361 13.995 12.4463 14.1765C12.4388 14.1792 12.4319 14.1835 12.4262 14.1891C12.4205 14.1947 12.416 14.2014 12.4131 14.2089C12.4102 14.2163 12.4089 14.2243 12.4093 14.2323C12.4098 14.2403 12.4119 14.2481 12.4156 14.2552C12.6856 14.7705 12.9946 15.261 13.3343 15.7267C13.3414 15.7363 13.3512 15.7434 13.3625 15.7472C13.3738 15.7509 13.3859 15.7511 13.3973 15.7477C15.0131 15.2615 16.535 14.5056 17.8988 13.512C17.9055 13.5073 17.911 13.5013 17.9152 13.4943C17.9193 13.4873 17.9219 13.4796 17.9228 13.4715C18.2978 9.65098 17.2943 6.33148 15.2611 3.38998C15.2561 3.38042 15.2478 3.37297 15.2378 3.36898ZM6.01506 11.4585C5.12856 11.4585 4.39731 10.6567 4.39731 9.67348C4.39731 8.68948 5.11431 7.88848 6.01506 7.88848C6.92256 7.88848 7.64706 8.69623 7.63281 9.67348C7.63281 10.6575 6.91581 11.4585 6.01506 11.4585ZM11.9963 11.4585C11.1091 11.4585 10.3786 10.6567 10.3786 9.67348C10.3786 8.68948 11.0948 7.88848 11.9963 7.88848C12.9038 7.88848 13.6283 8.69623 13.6141 9.67348C13.6141 10.6575 12.9046 11.4585 11.9963 11.4585Z" fill="white"/>
</g>
<defs>
<clipPath id="clip0_485_150">
<rect width="18" height="18" fill="white"/>
</clipPath>
</defs>
</svg>
