<svg width="12" height="8" viewBox="0 0 12 8" fill="none" xmlns="http://www.w3.org/2000/svg">
<path d="M11.6017 0H0.398339C0.292704 0.000106597 0.191434 0.0362932 0.116754 0.100618C0.0420731 0.164942 8.4076e-05 0.25215 1.5891e-06 0.343101V1.03333C1.5891e-06 1.06513 0.0400535 1.10163 0.0727808 1.11639L5.96151 4.01241C5.97659 4.01983 5.99369 4.02368 6.01107 4.02355C6.02882 4.02359 6.04627 4.01951 6.06156 4.01174L11.7723 1.1192C11.8044 1.10377 11.8895 1.06298 11.9215 1.0442C11.9601 1.02152 12 1.00099 12 0.960333V0.342967C11.9999 0.252039 11.9579 0.164866 11.8832 0.10057C11.8085 0.0362748 11.7073 0.000106535 11.6017 0ZM11.9503 2.07403C11.935 2.06651 11.9176 2.06259 11.8999 2.06269C11.8823 2.06278 11.865 2.06688 11.8498 2.07457L8.61803 3.71171C8.60515 3.71817 8.59413 3.72705 8.58577 3.73768C8.57742 3.74831 8.57196 3.76042 8.56979 3.77312C8.56762 3.78581 8.5688 3.79877 8.57324 3.81102C8.57767 3.82327 8.58526 3.8345 8.59543 3.84388L11.8276 6.84376C11.8369 6.85243 11.8481 6.85933 11.8607 6.86405C11.8732 6.86876 11.8867 6.87117 11.9004 6.87114C11.9268 6.8711 11.9521 6.86206 11.9708 6.84598C11.9895 6.82991 12 6.80812 12 6.7854V2.14851C12.0001 2.13342 11.9955 2.11859 11.9868 2.10551C11.978 2.09244 11.9655 2.08158 11.9503 2.07403ZM7.6867 4.26145C7.67136 4.24707 7.65075 4.23765 7.62832 4.23477C7.60588 4.23188 7.58298 4.23571 7.56343 4.24562L6.26805 4.9019C6.19216 4.93965 6.10616 4.95977 6.01851 4.96026C5.93086 4.96075 5.84457 4.94161 5.7681 4.90472L4.6281 4.34397C4.6097 4.33495 4.58844 4.3312 4.56739 4.33328C4.54635 4.33535 4.52662 4.34314 4.51107 4.35551L0.182028 7.81282C0.170679 7.82195 0.161965 7.83324 0.156581 7.84579C0.151197 7.85834 0.149292 7.8718 0.151018 7.88509C0.152744 7.89838 0.158052 7.91115 0.16652 7.92236C0.174989 7.93357 0.186382 7.94293 0.199794 7.94968C0.267118 7.98376 0.332105 8 0.398183 8H11.487C11.5064 8.00003 11.5254 7.99516 11.5416 7.98597C11.5578 7.97679 11.5705 7.9637 11.5781 7.94834C11.5859 7.93307 11.5883 7.91617 11.585 7.89974C11.5818 7.88331 11.573 7.86806 11.5597 7.85589L7.6867 4.26145ZM3.55855 3.94653C3.57001 3.9374 3.57882 3.92608 3.58427 3.91348C3.58972 3.90088 3.59165 3.88735 3.5899 3.87399C3.58816 3.86063 3.58279 3.84781 3.57423 3.83657C3.56567 3.82532 3.55416 3.81597 3.54062 3.80926L0.148521 2.14113C0.133383 2.13372 0.116253 2.12988 0.0988452 2.12996C0.0814374 2.13005 0.0643614 2.13407 0.0493252 2.14163C0.0342889 2.14918 0.0218194 2.16 0.0131636 2.173C0.00450784 2.18601 -3.07781e-05 2.20074 1.5891e-06 2.21573V6.59271C-0.000108245 6.60943 0.00547773 6.62581 0.0160681 6.63982C0.0266584 6.65383 0.0417881 6.66486 0.0595847 6.67154C0.0773813 6.67822 0.0970634 6.68027 0.116195 6.67742C0.135326 6.67457 0.153068 6.66695 0.167222 6.65551L3.55855 3.94653Z" fill="#C8A57E"/>
</svg>
