<svg width="20" height="21" viewBox="0 0 20 21" fill="none" xmlns="http://www.w3.org/2000/svg">
<path d="M12.0196 1.40594C12.0468 1.30345 12.0936 1.20737 12.1575 1.12319C12.2214 1.039 12.3012 0.968363 12.3921 0.915304C12.4831 0.862246 12.5835 0.827809 12.6876 0.813961C12.7917 0.800114 12.8976 0.807127 12.999 0.834599C14.4812 1.2252 15.8334 2.00781 16.9166 3.10183C17.9997 4.19585 18.7745 5.56172 19.1612 7.05878C19.1884 7.16125 19.1954 7.26813 19.1816 7.37331C19.1679 7.47849 19.1338 7.57992 19.0813 7.67178C19.0288 7.76365 18.9588 7.84416 18.8755 7.90872C18.7922 7.97328 18.697 8.02062 18.5956 8.04803C18.528 8.06595 18.4585 8.07511 18.3887 8.07528C18.2126 8.07534 18.0415 8.0167 17.9018 7.90846C17.7621 7.80023 17.6617 7.64845 17.6162 7.47669C17.3009 6.2544 16.6686 5.13915 15.7845 4.24593C14.9003 3.35271 13.7963 2.71384 12.5863 2.39519C12.4847 2.36788 12.3895 2.32062 12.306 2.25611C12.2226 2.1916 12.1525 2.1111 12.0999 2.01922C12.0473 1.92735 12.0131 1.82589 11.9993 1.72065C11.9855 1.61542 11.9924 1.50848 12.0196 1.40594ZM11.7868 5.62538C13.1649 5.99686 14.0504 6.89223 14.4181 8.28424C14.4637 8.456 14.5641 8.60778 14.7038 8.71601C14.8435 8.82425 15.0146 8.88289 15.1907 8.88283C15.2605 8.88265 15.33 8.8735 15.3975 8.85558C15.499 8.82817 15.5941 8.78083 15.6775 8.71627C15.7608 8.65171 15.8308 8.5712 15.8833 8.47933C15.9358 8.38746 15.9699 8.28604 15.9836 8.18086C15.9973 8.07568 15.9904 7.9688 15.9632 7.86633C15.4515 5.93225 14.1143 4.58163 12.1995 4.06479C12.0981 4.03742 11.9923 4.0305 11.8882 4.04442C11.7841 4.05834 11.6837 4.09284 11.5928 4.14594C11.5019 4.19904 11.4222 4.26971 11.3584 4.3539C11.2945 4.4381 11.2477 4.53417 11.2206 4.63664C11.1935 4.73911 11.1866 4.84597 11.2004 4.95111C11.2142 5.05626 11.2484 5.15763 11.3009 5.24944C11.3535 5.34126 11.4235 5.42171 11.5068 5.48622C11.5902 5.55072 11.6853 5.59801 11.7868 5.62538ZM19.0253 13.5727L14.3172 11.4418L14.3042 11.4357C14.0598 11.3301 13.7932 11.2877 13.5284 11.3124C13.2637 11.3371 13.0093 11.428 12.7881 11.577C12.7621 11.5944 12.7371 11.6133 12.7132 11.6335L10.2807 13.7281C8.73963 12.9721 7.14861 11.3771 6.40007 9.84079L8.47679 7.34647C8.49678 7.32124 8.51577 7.296 8.53376 7.26874C8.67809 7.04596 8.76567 6.7906 8.78868 6.52537C8.8117 6.26014 8.76944 5.99328 8.66567 5.74853V5.73642L6.54998 0.972892C6.4128 0.653168 6.17693 0.386829 5.87758 0.213633C5.57822 0.0404375 5.23144 -0.0303249 4.889 0.011909C3.5348 0.191898 2.29178 0.863639 1.39209 1.90167C0.492393 2.9397 -0.00243943 4.27303 9.04308e-06 5.65264C9.04308e-06 13.6676 6.45603 20.1885 14.3912 20.1885C15.757 20.191 17.0771 19.6912 18.1048 18.7824C19.1325 17.8737 19.7975 16.6182 19.9757 15.2504C20.0176 14.9046 19.9477 14.5544 19.7764 14.2521C19.6051 13.9497 19.3417 13.7114 19.0253 13.5727Z" fill="#C8A57E"/>
</svg>
